<?xml version="1.0" standalone="no"?>
<!DOCTYPE svg PUBLIC "-//W3C//DTD SVG 20010904//EN"
 "http://www.w3.org/TR/2001/REC-SVG-20010904/DTD/svg10.dtd">
<svg version="1.0" xmlns="http://www.w3.org/2000/svg"
 width="840.000000pt" height="1080.000000pt" viewBox="0 0 840.000000 1080.000000"
 preserveAspectRatio="xMidYMid meet">
<metadata>
Created by potrace 1.16, written by Peter Selinger 2001-2019
</metadata>
<g transform="translate(0.000000,1080.000000) scale(0.100000,-0.100000)"
fill="#000000" stroke="none">
<path d="M5766 10783 c-7 -22 -23 -132 -36 -243 -6 -47 -13 -92 -16 -100 -4
-8 -10 -51 -16 -95 -5 -44 -13 -109 -18 -145 -5 -36 -13 -101 -19 -145 -5 -44
-14 -109 -20 -145 -5 -36 -13 -87 -16 -113 -4 -27 -9 -47 -11 -44 -3 2 -39 -5
-82 -15 -42 -11 -110 -23 -149 -27 -53 -6 -82 -14 -108 -33 l-35 -25 -125 28
c-68 16 -153 40 -187 55 -54 23 -73 26 -138 22 -134 -8 -231 -79 -294 -213
-22 -47 -56 -184 -56 -224 0 -59 34 -179 71 -254 37 -74 38 -82 28 -120 -6
-22 -17 -51 -26 -63 -8 -13 -12 -28 -9 -33 4 -6 2 -18 -3 -28 -5 -10 -17 -35
-26 -55 -9 -21 -19 -38 -24 -38 -10 0 -51 -78 -51 -98 0 -9 -10 -26 -22 -39
-16 -18 -23 -39 -25 -84 -4 -62 -28 -122 -82 -203 -14 -22 -33 -49 -41 -62 -8
-13 -27 -40 -41 -61 -61 -90 -119 -183 -119 -191 0 -4 -5 -13 -12 -20 -19 -19
-65 -102 -220 -402 -42 -80 -86 -163 -98 -185 -13 -22 -56 -105 -97 -185 -40
-80 -77 -150 -83 -157 -5 -7 -10 -17 -10 -23 0 -6 -4 -18 -10 -28 -14 -25 -55
-122 -70 -162 -6 -19 -16 -44 -20 -55 -5 -11 -21 -58 -35 -105 -63 -207 -79
-256 -85 -265 -3 -5 -12 -28 -19 -50 -8 -22 -29 -74 -48 -115 -54 -117 -60
-130 -84 -210 -12 -41 -28 -86 -35 -100 -6 -14 -18 -38 -25 -55 -8 -16 -17
-32 -21 -35 -3 -3 -10 -18 -13 -33 -6 -21 -4 -27 9 -27 9 0 16 6 16 13 0 19
67 80 79 72 23 -14 49 7 70 55 12 27 21 58 21 70 0 41 84 259 95 248 3 -3 -20
-78 -50 -167 -30 -90 -55 -174 -55 -186 0 -13 -4 -26 -9 -29 -4 -3 -11 -25
-14 -48 -2 -24 -8 -51 -12 -61 -6 -14 -2 -20 13 -24 13 -3 22 -15 24 -32 2
-17 9 -26 20 -25 14 1 15 -3 6 -30 -6 -17 -15 -35 -19 -41 -5 -5 -9 -15 -9
-22 0 -7 -14 -41 -31 -75 -42 -86 -61 -151 -51 -178 7 -19 11 -15 36 34 40 79
46 77 24 -7 -11 -39 -21 -90 -22 -112 -2 -22 -8 -50 -14 -62 -7 -12 -12 -35
-12 -51 0 -16 -7 -35 -15 -42 -8 -7 -12 -17 -8 -23 6 -11 -11 -26 -97 -86 -30
-21 -71 -55 -90 -75 -19 -20 -48 -44 -65 -53 -32 -17 -70 -60 -70 -79 0 -7
-27 -27 -60 -44 -33 -17 -105 -62 -160 -99 -55 -37 -127 -83 -160 -101 -33
-19 -100 -62 -150 -95 -99 -67 -226 -140 -185 -106 14 11 33 23 43 27 21 7 23
24 2 24 -8 0 -15 -4 -15 -9 0 -4 -11 -6 -25 -3 -13 2 -33 1 -42 -3 -10 -5 -21
-8 -25 -7 -3 1 -21 -12 -38 -28 -18 -17 -40 -30 -49 -30 -18 0 -57 -25 -88
-57 -16 -16 -18 -24 -10 -33 8 -8 4 -7 -10 1 -13 8 -23 24 -23 36 0 13 -3 23
-7 23 -13 0 -138 -62 -148 -73 -5 -7 -30 -25 -54 -42 -32 -21 -66 -63 -119
-145 -69 -105 -98 -155 -185 -323 -20 -40 -43 -67 -70 -84 -88 -56 -127 -121
-153 -260 -25 -135 -23 -302 6 -458 7 -33 12 -84 13 -112 1 -29 5 -53 9 -53 4
0 5 -7 2 -15 -4 -8 -2 -21 4 -28 12 -14 21 -52 27 -112 3 -22 7 -49 9 -60 3
-11 8 -49 12 -85 3 -36 9 -69 12 -75 3 -5 7 -28 7 -49 1 -22 6 -41 12 -43 6
-2 8 -13 5 -25 -3 -13 -1 -19 5 -15 5 3 9 -2 9 -11 0 -48 5 -73 13 -68 5 4 12
-7 16 -23 3 -15 15 -38 26 -50 11 -12 27 -37 35 -57 8 -19 18 -33 23 -30 4 3
8 -17 7 -43 -1 -27 -4 -47 -8 -44 -16 9 -7 -10 10 -23 10 -8 12 -13 5 -14 -7
0 -10 -7 -7 -15 5 -11 2 -13 -10 -9 -10 4 -15 13 -12 20 4 10 -3 14 -20 14
-14 0 -22 -4 -19 -10 3 -5 0 -7 -9 -4 -8 3 -20 19 -26 35 -7 16 -22 32 -34 35
-25 7 -93 98 -125 169 -57 124 -108 221 -135 254 -41 52 -55 91 -67 184 -13
110 -68 297 -87 297 -12 0 -8 -284 3 -292 6 -5 6 -8 -2 -8 -8 0 -9 -9 -2 -32
7 -25 5 -36 -9 -52 -10 -12 -12 -16 -3 -11 11 6 13 4 8 -10 -5 -11 -1 -22 10
-31 11 -8 13 -13 5 -14 -9 0 -10 -8 -5 -27 3 -16 6 -36 5 -46 0 -9 3 -17 8
-17 4 0 7 -25 7 -55 -1 -30 1 -55 5 -55 3 0 5 -18 4 -40 -2 -22 1 -40 5 -40 8
0 5 -42 -5 -58 -3 -6 -1 -14 5 -17 5 -4 8 -13 5 -20 -3 -8 0 -15 6 -17 6 -2
12 -26 14 -53 2 -26 6 -57 10 -68 4 -14 3 -17 -6 -12 -9 6 -9 3 -2 -12 12 -21
6 -58 -12 -83 -7 -10 -4 -10 10 2 19 17 20 16 21 -40 1 -35 -1 -49 -6 -38 -7
19 -8 18 -14 -4 -4 -14 -1 -29 5 -35 8 -7 9 -6 3 4 -5 9 -4 12 3 7 17 -10 -2
-43 -29 -51 -14 -5 -27 -1 -37 9 -15 15 -15 16 1 16 9 0 17 -6 17 -12 0 -9 4
-8 10 2 16 25 12 28 -29 23 -35 -5 -39 -3 -45 21 -3 14 -11 26 -16 26 -6 0
-10 9 -10 21 0 15 -4 19 -16 15 -11 -4 -15 -2 -11 8 3 8 -1 17 -9 20 -18 7
-18 1 5 -59 11 -27 30 -83 42 -123 12 -40 26 -75 30 -78 5 -3 7 -9 4 -14 -3
-5 -1 -11 5 -15 5 -3 10 -14 10 -24 0 -10 6 -24 14 -30 8 -7 18 -27 22 -44 8
-42 55 -140 71 -150 7 -4 13 -14 13 -21 0 -8 7 -16 15 -20 8 -3 15 -10 15 -16
0 -13 57 -63 115 -102 63 -42 66 -54 6 -24 -28 15 -52 25 -54 24 -2 -2 -12 3
-21 11 -9 8 -36 17 -59 21 -38 5 -45 3 -65 -21 -21 -26 -22 -29 -5 -37 26 -14
286 -92 306 -92 9 0 17 -4 17 -10 0 -6 -26 -10 -58 -10 -52 0 -67 -5 -121 -40
-34 -22 -64 -47 -67 -55 -7 -18 -26 -20 -23 -3 3 29 -2 59 -9 54 -4 -2 -14 -1
-22 4 -11 7 -11 11 -1 24 9 11 10 16 2 16 -6 0 -11 -6 -11 -12 0 -9 -4 -8 -10
2 -8 12 -10 9 -7 -10 2 -14 2 -20 0 -15 -7 19 -88 64 -97 55 -6 -6 -14 -4 -20
5 -6 8 -22 16 -36 19 -14 3 -35 8 -47 12 -20 6 -22 2 -25 -47 -2 -30 0 -81 4
-114 4 -33 12 -139 19 -235 6 -96 14 -202 18 -235 3 -33 5 -74 3 -91 -3 -30
-6 -32 -54 -37 -52 -6 -82 -22 -72 -38 3 -5 13 -8 22 -7 11 2 18 -5 20 -17 3
-20 -9 -28 -81 -54 -51 -20 -137 -62 -142 -72 -4 -5 326 -9 864 -9 l871 0 0
78 c0 74 2 79 35 117 l35 40 -6 -117 -7 -118 1689 0 1689 0 60 24 c62 26 81
50 45 59 -34 9 -23 23 31 36 52 14 71 9 51 -11 -7 -7 -12 -20 -12 -29 0 -10
-9 -24 -19 -31 -16 -11 -17 -16 -7 -31 12 -15 44 -17 354 -17 334 0 340 1 335
20 -3 11 -9 20 -13 20 -5 0 -11 18 -15 40 -4 25 -11 38 -17 33 -7 -3 -8 -1 -4
6 4 6 3 17 -2 24 -8 10 -33 95 -45 152 -2 6 -5 15 -8 20 -3 6 -5 22 -4 38 1
15 -1 27 -5 27 -4 0 -10 14 -12 30 -8 51 12 29 44 -50 28 -70 114 -304 125
-342 5 -17 55 -18 864 -18 771 0 859 2 859 16 0 8 -4 13 -8 10 -4 -3 -13 8
-19 25 -10 25 -9 29 5 29 10 0 24 5 32 10 10 7 -6 8 -50 5 -56 -4 -61 -3 -34
6 24 8 32 17 32 36 0 13 -3 22 -5 19 -3 -3 -18 9 -34 27 -16 18 -25 33 -19 35
16 6 12 22 -5 22 -8 0 -15 7 -15 15 0 8 -5 15 -11 15 -5 0 -7 -4 -4 -10 3 -5
1 -10 -4 -10 -6 0 -11 5 -11 11 0 5 -4 7 -10 4 -6 -3 -10 -2 -10 3 0 6 8 13
18 17 15 6 14 8 -8 17 -14 5 -37 11 -52 12 -32 2 -43 10 -33 25 4 8 12 8 25 1
10 -6 21 -7 23 -3 5 8 -24 39 -33 36 -3 -1 -15 6 -27 17 -12 10 -24 16 -27 13
-3 -4 -6 1 -6 10 0 10 3 16 8 16 41 -7 43 24 2 45 -16 8 -30 10 -30 5 0 -5 -8
-9 -17 -9 -14 0 -15 2 -5 9 10 6 7 13 -15 30 -15 13 -23 20 -16 17 6 -4 15 -2
18 4 10 16 -37 50 -60 44 l-20 -6 20 17 c11 9 15 14 8 11 -18 -9 -25 11 -13
34 7 13 7 20 0 20 -5 0 -10 -7 -10 -16 0 -8 -4 -13 -9 -10 -5 3 -7 15 -4 27 4
12 0 25 -8 30 -10 6 -6 8 11 5 14 -3 25 -5 25 -6 0 -1 8 -3 18 -5 9 -2 15 1
11 6 -3 5 -12 9 -20 9 -8 0 -13 4 -10 8 3 5 -8 8 -24 7 -42 -2 -57 9 -40 30 7
9 9 15 4 14 -28 -5 -43 2 -37 18 4 11 3 14 -5 9 -11 -6 -16 5 -13 26 0 4 -7 5
-17 2 -11 -4 -9 1 8 17 14 13 20 20 13 15 -7 -5 -13 -5 -13 -1 0 4 -8 1 -17
-6 -16 -12 -17 -12 -6 1 6 9 10 25 8 35 -2 11 -4 24 -4 28 -1 5 -5 6 -10 3 -5
-4 -8 5 -6 19 3 28 15 47 15 25 0 -9 5 -7 15 6 21 28 18 35 -11 28 -19 -5 -25
-4 -20 5 4 6 13 11 21 11 7 0 15 4 17 10 2 5 50 17 108 26 58 9 108 19 112 23
4 3 4 25 1 49 -7 51 -26 59 -95 38 -39 -11 -49 -11 -58 -1 -6 7 -7 15 -3 17 4
1 19 16 33 32 l25 28 -45 -20 c-25 -12 -94 -40 -155 -63 -60 -23 -122 -48
-137 -55 -17 -9 -28 -10 -28 -4 0 5 -6 10 -14 10 -24 0 -24 25 0 55 25 31 31
74 14 105 -8 15 -5 19 18 25 15 3 67 25 115 48 l88 41 -32 30 c-18 17 -27 32
-21 34 7 2 12 8 12 13 0 10 -26 7 -105 -14 -49 -12 -68 -13 -110 -3 -11 2 -24
5 -29 5 -5 1 -6 4 -3 8 4 3 -2 17 -14 29 -27 29 -22 88 12 135 13 18 16 29 8
24 -10 -7 -9 -3 3 15 16 23 68 125 73 143 2 4 4 8 5 10 9 9 7 57 -3 57 -7 0
-4 7 6 14 12 10 15 16 7 21 -7 4 -3 13 11 26 12 10 17 19 10 19 -8 0 -9 6 -3
18 12 24 9 41 -8 52 -13 9 -13 10 1 10 11 0 14 8 11 32 -5 48 -5 66 1 138 5
55 14 80 58 155 28 50 53 92 56 95 2 2 12 -1 21 -8 24 -17 101 -52 115 -52 15
0 -34 39 -49 40 -5 0 -20 14 -32 30 -13 17 -29 30 -37 30 -8 0 -15 6 -15 14 0
8 -4 16 -9 18 -6 2 -61 110 -98 193 -5 11 32 -30 60 -66 9 -13 17 -31 17 -41
0 -21 35 -94 49 -102 4 -3 22 28 39 68 29 69 31 76 17 103 -8 15 -15 40 -15
56 0 17 -5 27 -15 27 -9 0 -15 9 -15 23 0 13 -14 -7 -34 -51 -30 -65 -35 -71
-47 -55 -8 9 -9 14 -2 10 8 -5 11 0 10 13 -1 11 -5 20 -9 20 -10 0 -22 32 -31
78 -5 24 -3 32 8 32 8 0 15 -4 15 -8 0 -4 14 -13 31 -19 23 -9 29 -9 26 0 -3
7 -10 11 -16 9 -7 -1 -10 2 -6 8 7 11 -25 89 -37 90 -11 0 -21 -47 -13 -62 5
-7 0 -5 -11 4 -16 16 -17 22 -5 53 7 19 15 47 17 62 3 15 8 31 12 37 3 6 8 19
9 29 5 28 11 62 13 67 2 3 2 9 1 13 -1 4 3 16 8 25 6 12 5 26 -5 42 -7 14 -13
20 -14 13 0 -7 -7 -10 -16 -6 -12 4 -15 2 -12 -8 5 -15 -14 -39 -31 -39 -5 0
-12 -8 -14 -17 -3 -13 -5 -12 -6 5 0 13 -5 20 -11 17 -5 -3 -10 2 -11 12 0 10
-2 104 -4 208 -4 205 -9 284 -26 349 -6 22 -10 52 -10 65 1 20 -1 21 -14 11
-12 -10 -14 -41 -12 -176 2 -90 -1 -164 -5 -164 -4 0 -8 6 -9 13 0 6 -3 21 -5
32 -3 11 -7 36 -9 55 -2 19 -13 85 -25 145 -11 61 -22 119 -24 130 -2 11 -7
40 -11 65 -5 25 -9 54 -10 65 0 11 -7 19 -14 17 -8 -2 -11 3 -8 13 4 8 2 15
-3 15 -6 0 -10 8 -10 18 0 11 -8 26 -18 35 -10 9 -33 48 -52 87 -19 38 -37 70
-42 70 -4 0 -8 -14 -8 -31 0 -36 -16 -31 -23 8 -6 31 -54 179 -67 203 -4 9
-11 31 -15 50 -4 19 -11 40 -15 45 -4 6 -17 44 -30 85 -13 41 -33 98 -45 125
-12 28 -32 88 -44 135 -13 47 -29 99 -37 115 -16 38 -54 160 -54 177 0 13 -43
125 -61 160 -5 10 -9 23 -9 30 0 6 -12 50 -26 97 -14 47 -30 102 -35 121 -5
19 -18 67 -29 105 -12 39 -25 94 -30 124 -12 67 -37 91 -62 58 -31 -39 -30
-70 2 -183 17 -60 36 -125 42 -144 5 -19 12 -48 15 -65 3 -16 9 -34 13 -40 4
-5 20 -55 34 -110 15 -55 35 -122 45 -150 30 -84 41 -118 37 -123 -5 -4 -66
124 -66 138 0 5 -4 11 -9 14 -10 7 -7 -24 15 -144 9 -47 16 -98 16 -115 0 -16
7 -37 14 -45 7 -9 13 -36 12 -60 -1 -25 4 -72 10 -105 7 -33 14 -80 16 -105
13 -128 19 -166 28 -177 5 -7 5 -13 -1 -17 -14 -9 -19 17 -37 164 -2 14 -5 39
-8 55 -2 17 -9 64 -16 105 -6 41 -24 147 -40 235 -16 88 -31 181 -33 206 -2
25 -7 51 -11 57 -4 6 -15 49 -26 94 -61 269 -91 395 -95 407 -4 9 -18 -6 -38
-40 -18 -30 -57 -85 -86 -124 -29 -38 -58 -80 -64 -92 -6 -13 -13 -23 -17 -23
-3 0 -16 -18 -29 -40 -12 -22 -20 -40 -17 -40 3 0 -3 -9 -14 -20 -11 -11 -20
-26 -20 -34 0 -8 -7 -17 -16 -20 -10 -4 -13 -13 -9 -27 5 -15 4 -19 -4 -15 -6
4 -11 2 -11 -3 0 -6 -6 -11 -14 -11 -8 0 -17 -7 -20 -16 -4 -10 -2 -13 7 -8 6
4 1 -4 -12 -17 -16 -15 -26 -19 -29 -11 -4 14 -42 -2 -55 -24 -8 -14 -67 -16
-67 -2 0 5 11 13 24 19 16 8 22 17 19 27 -4 10 -2 13 5 8 7 -4 12 -2 12 3 0 6
-6 11 -12 11 -9 0 -9 3 -3 8 6 4 10 16 10 27 0 11 5 36 11 55 23 66 25 88 9
94 -9 3 -13 14 -11 28 2 13 -1 28 -6 35 -6 7 -8 18 -6 24 5 15 48 23 48 9 0
-6 7 -10 15 -10 9 0 15 -9 15 -22 1 -21 2 -21 11 -5 14 25 20 58 11 71 -6 10
-22 15 -59 18 -26 3 -12 18 16 18 39 0 81 16 81 31 0 7 7 20 14 28 13 14 19
36 30 101 4 20 58 40 63 23 3 -7 14 -13 26 -13 14 0 26 -10 34 -25 8 -19 8
-25 0 -25 -12 0 12 -20 24 -20 4 0 14 18 23 41 21 51 14 80 -17 73 -12 -3 -68
-8 -125 -11 l-104 -5 18 27 c10 15 28 31 41 36 17 6 23 16 23 38 0 16 5 33 11
37 12 7 5 79 -14 132 -8 23 -17 32 -34 32 -13 0 -23 4 -23 9 0 5 24 10 53 10
60 0 93 10 125 40 53 51 59 115 26 291 -9 47 -18 141 -20 210 -1 69 -5 170 -9
226 -5 91 -3 103 15 123 10 13 22 33 26 45 10 31 26 37 47 18 12 -11 20 -13
25 -5 4 6 21 9 39 8 23 -2 30 1 26 11 -3 8 0 14 6 14 6 0 11 -9 11 -20 0 -20
19 -29 21 -10 1 6 3 15 4 20 1 6 3 17 4 25 0 8 6 15 12 15 6 0 8 -12 5 -32 -5
-25 -4 -28 3 -13 8 17 10 18 10 3 1 -10 6 -18 12 -18 5 0 7 -5 4 -10 -4 -6
-11 -8 -16 -5 -5 4 -9 -1 -9 -9 0 -11 -9 -16 -28 -16 -41 0 -135 -51 -149 -80
-7 -14 -13 -59 -13 -101 0 -67 3 -78 23 -95 22 -18 32 -22 67 -29 8 -1 14 -7
13 -13 -1 -5 9 -13 23 -16 19 -5 24 -11 19 -23 -5 -14 -2 -14 15 2 18 16 23
17 30 5 8 -12 10 -12 10 3 0 10 5 15 10 12 13 -8 42 14 35 26 -3 5 3 14 15 21
11 7 20 20 20 28 0 20 19 40 39 40 23 0 81 50 81 70 0 24 18 36 26 16 3 -8 13
-17 21 -20 14 -6 14 -4 2 11 -12 15 -12 16 4 10 12 -5 17 -1 17 13 0 11 -4 20
-10 20 -5 0 -10 -5 -10 -12 0 -6 -16 5 -36 25 -24 24 -33 40 -28 49 5 7 9 20
10 28 1 8 2 23 3 34 0 10 6 16 14 13 7 -3 22 2 32 10 19 13 18 14 -9 7 -23 -5
-27 -4 -21 6 6 10 4 11 -11 5 -10 -4 -37 -11 -59 -15 -35 -7 -37 -7 -21 5 18
13 17 14 -3 12 -11 -1 -21 -4 -21 -8 0 -4 -7 -10 -16 -13 -12 -5 -14 -1 -9 17
5 17 4 19 -4 7 -6 -8 -11 -11 -11 -6 0 5 -7 3 -15 -4 -13 -11 -15 -10 -9 6 5
18 5 18 -9 1 -13 -16 -15 -16 -21 -1 -3 8 -3 33 0 55 6 35 5 39 -12 33 -12 -4
-15 -3 -7 3 15 10 43 76 43 98 0 10 -5 14 -12 10 -7 -4 -5 0 5 8 17 14 25 33
10 24 -5 -3 -9 6 -9 19 -2 21 0 23 13 13 12 -10 16 -10 24 2 11 18 11 29 0 29
-5 0 -8 12 -5 27 6 30 38 75 48 66 3 -3 6 1 6 11 0 9 -4 14 -10 11 -13 -8 -13
-2 2 30 6 14 15 25 19 25 5 0 5 7 2 17 -4 11 -3 14 5 9 16 -10 15 6 0 23 -10
11 -10 12 -1 7 9 -5 11 -2 7 9 -4 8 -1 22 6 30 6 8 9 19 5 26 -4 6 -1 15 6 20
10 6 11 9 2 9 -7 0 -13 7 -13 16 0 9 5 12 12 8 7 -4 8 -3 4 5 -4 6 -2 19 6 28
9 12 9 15 1 9 -9 -5 -11 -2 -7 8 3 9 11 13 17 9 6 -3 7 -1 3 5 -4 6 -14 8 -24
5 -15 -6 -15 -5 -3 10 7 9 18 14 25 10 6 -4 4 2 -4 13 -22 30 -24 30 -16 9 6
-16 5 -17 -5 -8 -8 9 -9 16 -2 25 6 7 9 23 7 35 -2 12 1 25 6 28 7 4 6 13 -1
27 -8 16 -8 19 1 13 8 -5 11 -3 8 6 -3 8 -11 13 -17 11 -9 -2 -9 3 -1 17 13
25 -5 38 -19 14 -6 -10 -11 -13 -11 -6 0 6 5 15 11 19 6 3 8 15 6 26 -3 10 -2
32 3 48 7 23 5 34 -8 47 -12 12 -13 18 -4 21 15 5 16 32 1 32 -7 0 -9 10 -5
28 4 15 7 36 7 47 0 10 5 25 11 33 6 7 12 37 12 66 1 52 0 53 -23 45 -30 -12
-36 -6 -22 19 8 15 8 22 -2 25 -9 4 -8 8 3 16 18 12 33 4 26 -16 -3 -8 -1 -11
4 -8 6 3 10 13 10 20 0 9 6 12 16 8 10 -4 22 1 30 12 8 11 21 16 34 12 12 -3
20 -1 19 6 -1 7 3 23 10 37 11 23 11 22 7 -13 -4 -34 -3 -36 11 -22 11 12 16
41 19 106 1 51 8 97 15 105 9 11 8 19 -7 35 -19 21 -19 21 0 18 29 -6 42 -33
28 -61 -14 -27 -24 -148 -13 -148 5 0 11 9 14 20 3 11 11 20 19 19 10 0 10 -2
1 -6 -7 -2 -13 -13 -13 -24 0 -10 -4 -19 -9 -19 -5 0 -12 -7 -15 -16 -3 -9 -2
-12 5 -9 6 4 7 -3 3 -21 -5 -17 -3 -25 3 -21 6 4 10 -1 9 -10 0 -10 7 -19 17
-21 12 -2 17 3 17 18 0 12 -3 19 -7 17 -5 -3 -8 14 -9 36 0 31 5 46 19 56 16
11 18 21 12 57 -4 28 -2 50 7 64 10 16 11 22 0 28 -8 6 -13 44 -16 121 -3 95
-7 114 -22 127 -14 11 -15 17 -6 20 21 9 13 24 -13 24 -26 0 -45 25 -45 59 0
12 -5 21 -11 21 -7 0 -9 10 -5 24 5 20 -4 34 -50 78 -30 29 -62 53 -70 53 -8
0 -38 29 -67 64 -32 40 -63 68 -80 72 -15 4 -57 36 -93 71 -36 34 -84 75 -107
89 -59 37 -157 71 -183 65 -16 -4 -26 1 -37 17 -8 13 -47 45 -86 71 -39 27
-71 53 -72 60 -3 38 3 139 11 186 4 30 14 100 20 155 6 55 16 125 21 155 6 30
15 89 20 130 5 41 13 107 18 145 5 39 14 108 21 155 6 47 15 101 20 120 6 19
10 38 10 43 0 4 -85 7 -189 7 -172 0 -190 -2 -195 -17z m-1334 -2944 c-2 -8
-10 -19 -18 -25 -12 -10 -12 -13 1 -24 13 -11 15 -10 9 6 -4 15 -1 13 14 -5
11 -14 18 -31 15 -38 -6 -16 -2 -16 32 -3 21 8 24 13 16 28 -6 11 -6 24 0 35
7 11 6 17 -1 17 -5 0 -10 5 -10 10 0 7 6 7 19 0 16 -8 22 -6 30 7 8 15 12 16
22 6 11 -11 7 -18 -5 -10 -6 3 -46 -35 -46 -45 0 -5 10 -4 21 3 15 8 19 8 15
0 -12 -19 -16 -52 -5 -46 5 4 6 11 3 17 -4 7 -2 8 4 4 8 -5 9 -13 2 -25 -10
-19 -6 -59 6 -70 4 -3 4 2 1 12 -4 9 -2 17 3 17 6 0 10 -13 10 -30 0 -17 5
-30 12 -30 9 0 9 -3 0 -12 -10 -10 -15 -10 -22 2 -5 8 -10 10 -10 5 0 -6 5
-16 11 -22 9 -9 6 -11 -12 -7 -13 2 -18 2 -11 -2 20 -9 14 -26 -8 -19 -12 4
-20 2 -20 -5 0 -6 4 -9 9 -5 5 3 17 -2 26 -11 15 -16 16 -16 13 1 -2 10 2 20
7 22 6 2 12 -9 13 -24 1 -14 5 -29 8 -32 3 -3 4 13 1 37 -2 23 0 45 6 49 6 3
7 1 3 -5 -9 -15 16 -16 31 -1 7 7 12 6 17 -6 3 -9 2 -14 -3 -10 -12 7 -41 -5
-41 -17 0 -6 9 -8 20 -5 24 6 37 -10 20 -26 -7 -7 -10 -7 -7 -2 3 6 -3 11 -13
11 -10 0 -16 -6 -13 -13 3 -7 9 -10 14 -7 5 3 9 0 9 -6 0 -6 5 -8 10 -5 6 3
10 2 10 -4 0 -6 -13 -9 -29 -7 -25 3 -28 0 -28 -22 0 -21 1 -22 9 -9 11 21 29
22 22 2 -4 -8 1 -17 9 -21 9 -3 13 -12 10 -20 -4 -12 -8 -12 -20 3 -13 17 -13
16 -4 -4 16 -32 14 -43 -11 -54 -19 -8 -17 -9 12 -4 31 4 33 3 18 -9 -23 -17
-23 -27 -1 -19 11 4 14 3 9 -6 -4 -6 -17 -11 -28 -9 -12 2 -22 -3 -24 -10 -1
-7 0 -8 3 -2 7 15 43 -7 37 -23 -2 -7 4 -13 16 -14 18 -2 19 0 5 13 -11 11
-12 20 -5 33 5 10 7 21 3 24 -3 4 4 4 16 2 15 -3 21 0 18 8 -3 7 -9 11 -15 10
-6 -2 -9 4 -5 13 5 14 7 14 22 0 13 -13 13 -20 3 -36 -16 -26 -15 -30 3 -30 8
0 15 -3 16 -7 2 -24 8 -46 14 -51 4 -4 4 12 0 36 -4 28 -3 42 4 42 6 0 11 -5
11 -11 0 -5 5 -7 11 -4 12 8 8 -27 -4 -36 -5 -3 -1 -9 8 -13 14 -5 16 -2 12
13 -3 14 -1 18 9 14 13 -5 12 -9 -1 -29 -8 -13 -11 -24 -5 -24 14 0 1 -79 -16
-105 -17 -25 -18 -45 -1 -22 10 15 12 13 12 -18 0 -35 -9 -46 -19 -22 -2 6 -4
-4 -3 -23 1 -23 -2 -34 -10 -33 -7 2 -13 -1 -13 -6 0 -5 -3 -18 -7 -28 -7 -17
-6 -17 11 0 9 9 19 17 22 17 5 0 -3 -65 -12 -94 -6 -18 -5 -19 10 -7 19 16 22
8 3 -11 -16 -17 -39 -69 -33 -75 2 -2 7 5 11 16 6 21 25 20 25 0 0 -6 -4 -8
-9 -5 -5 3 -13 -13 -19 -36 -9 -33 -8 -47 4 -71 9 -16 13 -31 10 -35 -3 -3 -6
1 -6 9 0 12 -2 12 -10 -1 -6 -9 -5 -17 2 -21 9 -6 8 -13 -2 -26 -12 -15 -11
-15 9 2 l24 20 -12 -22 c-7 -14 -8 -24 -1 -28 5 -3 10 -11 10 -16 0 -6 -5 -7
-12 -3 -8 5 -9 2 -4 -12 5 -10 10 -33 12 -51 4 -27 1 -31 -15 -28 -11 2 -22
-3 -25 -11 -7 -17 6 -18 22 -2 9 9 12 7 12 -10 0 -12 5 -22 11 -22 6 0 7 -5 2
-12 -17 -28 -12 -40 9 -21 16 14 20 14 16 3 -2 -8 -14 -19 -26 -25 -26 -11
-27 -18 -7 -38 8 -8 11 -18 7 -22 -4 -4 -7 -11 -7 -15 0 -5 -9 -16 -20 -25
-20 -17 -13 -17 29 1 9 3 13 -2 12 -18 -1 -13 4 -31 12 -40 10 -12 11 -18 4
-18 -7 0 -12 -7 -12 -16 0 -9 -8 -23 -17 -30 -17 -13 -17 -14 2 -8 18 5 18 4
3 -6 -10 -6 -18 -17 -18 -24 0 -8 -9 -16 -21 -19 -16 -4 -18 -3 -8 9 9 11 9
14 0 14 -7 0 -9 5 -6 10 4 6 12 7 18 3 7 -4 7 -1 -1 10 -11 13 -18 14 -37 5
-19 -8 -27 -7 -40 6 -10 10 -12 16 -4 16 6 0 0 9 -15 21 -14 11 -24 24 -22 28
3 4 -6 24 -20 44 -14 20 -20 37 -14 37 7 0 5 6 -3 15 -9 8 -19 29 -22 47 -4
18 -11 39 -16 48 -33 63 -119 398 -119 466 0 67 -8 89 -26 73 -11 -9 -16 -6
-23 12 -6 15 -10 18 -12 9 -1 -8 -3 -26 -5 -40 -7 -53 -6 -108 2 -121 6 -12 5
-12 -9 0 -13 10 -17 30 -17 82 0 59 3 72 25 95 33 36 32 64 -9 137 -19 34 -44
85 -56 112 l-21 50 26 -30 c14 -16 32 -45 41 -62 10 -20 24 -33 35 -33 11 0
19 -5 19 -12 0 -8 3 -9 10 -2 14 14 14 178 0 256 -9 52 -16 69 -32 74 -27 8
-36 -3 -40 -50 -3 -39 -4 -39 -21 -21 -17 16 -18 32 -15 137 3 102 6 120 23
134 17 13 17 15 3 10 -21 -6 -24 12 -4 20 8 3 16 18 19 33 4 18 17 32 39 43
38 19 74 17 70 -3z m-267 -485 c-14 -26 -25 -54 -25 -63 0 -9 -9 -41 -21 -71
-53 -140 -53 -206 -4 -322 5 -12 3 -18 -7 -18 -27 0 -48 89 -52 220 -3 69 -2
107 2 85 6 -31 9 -36 14 -20 4 11 18 59 33 107 19 62 34 94 52 108 14 11 27
20 29 20 2 0 -8 -21 -21 -46z m1830 -2423 c8 -16 11 -31 8 -34 -3 -4 0 -13 7
-22 7 -9 10 -18 6 -22 -3 -3 2 -15 11 -26 10 -10 17 -21 16 -23 -7 -10 -2 -23
17 -44 28 -32 25 -40 -12 -29 -40 11 -40 11 -34 0 3 -5 18 -12 33 -16 51 -12
73 -43 73 -101 0 -29 -6 -73 -14 -96 -7 -24 -19 -62 -25 -85 -6 -24 -16 -43
-21 -43 -5 0 -14 -19 -20 -42 -6 -24 -23 -79 -37 -123 -15 -44 -39 -127 -53
-185 l-27 -105 -17 40 c-13 30 -15 44 -7 57 6 10 11 27 11 39 0 11 5 29 10 40
6 10 11 35 12 54 1 19 4 35 8 35 4 0 8 11 8 24 0 17 -5 23 -14 19 -8 -3 -12
-9 -9 -13 3 -5 1 -11 -5 -15 -5 -3 -10 0 -10 9 0 8 -3 22 -7 32 -5 13 -3 15 7
9 9 -6 11 -4 5 5 -5 8 0 19 15 30 l22 17 -28 1 c-36 1 -84 18 -84 31 0 5 15
12 33 15 17 4 55 18 82 32 l50 25 -85 -5 c-79 -5 -83 -5 -55 9 17 8 39 14 50
15 14 1 10 5 -15 16 -36 16 -52 33 -43 46 2 5 14 6 25 2 11 -3 30 -7 41 -9 12
-1 27 -4 32 -5 27 -7 96 1 90 10 -3 6 -16 10 -28 10 -20 0 -129 34 -150 47 -4
2 -4 10 0 16 4 7 8 15 9 20 1 4 2 9 3 12 0 3 11 -1 24 -9 25 -16 182 -23 157
-7 -8 5 -36 13 -62 16 -26 4 -50 11 -54 16 -3 5 -13 9 -22 9 -28 0 -49 17 -36
30 8 8 27 9 63 2 28 -5 54 -6 56 -2 3 4 -13 10 -34 14 -21 3 -49 14 -61 24
-22 18 -22 19 -5 45 9 15 15 33 12 41 -3 8 -3 17 1 21 4 4 8 23 9 43 2 51 7
73 22 100 14 26 25 22 46 -17z m-3135 -207 c0 -3 -24 -31 -54 -62 -107 -113
-136 -147 -136 -162 0 -9 -4 -20 -10 -26 -5 -5 -11 -18 -13 -29 -2 -11 -9 -33
-16 -49 -6 -16 -13 -40 -15 -55 -2 -14 -9 -46 -16 -71 -7 -25 -13 -54 -15 -65
-4 -29 -36 -157 -46 -180 -4 -11 -13 -40 -20 -65 -6 -25 -19 -56 -28 -70 -10
-14 -18 -38 -19 -54 -1 -17 -7 -33 -13 -37 -6 -3 -10 -9 -10 -13 3 -25 -1 -37
-11 -33 -7 2 -13 8 -13 13 0 5 -4 15 -8 22 -5 7 -6 30 -2 51 4 24 2 42 -4 46
-6 3 -8 11 -5 17 4 6 8 23 10 37 15 165 23 209 35 217 5 3 7 9 4 15 -8 11 32
146 45 154 6 4 8 11 5 16 -4 5 0 9 8 9 21 0 47 61 47 108 0 61 32 123 77 151
21 13 51 33 66 43 23 16 146 78 155 78 1 0 2 -3 2 -6z m4259 -1382 c40 -68 77
-135 82 -150 9 -23 6 -21 -24 13 l-34 39 -13 -24 c-9 -18 -11 -59 -7 -158 3
-73 4 -132 1 -130 -7 8 -34 223 -34 279 0 32 -4 61 -10 64 -5 3 -10 13 -10 22
0 8 -6 29 -14 46 -23 55 -78 200 -92 247 -26 84 -14 75 35 -25 26 -55 80 -155
120 -223z m-5899 120 c0 -7 4 -11 9 -8 5 3 9 0 8 -7 -1 -40 4 -78 11 -74 4 3
8 -7 9 -21 9 -170 9 -199 -4 -226 -8 -15 -10 -25 -4 -22 6 4 11 2 11 -4 0 -6
5 -8 12 -4 7 4 8 3 4 -5 -4 -6 -12 -8 -18 -5 -6 4 -17 -1 -25 -12 -12 -17 -13
-15 -8 21 5 31 3 37 -5 25 -10 -12 -11 -11 -7 8 4 18 3 21 -8 12 -7 -6 -11
-21 -8 -33 4 -20 3 -20 -7 -4 -6 9 -8 23 -3 30 12 19 12 37 1 37 -7 0 -6 5 1
14 8 10 9 16 1 21 -5 3 -10 1 -10 -6 0 -7 -6 -4 -14 7 -8 10 -12 29 -9 42 3
13 1 22 -6 22 -8 0 -9 6 -3 18 5 9 7 23 4 31 -2 8 -1 11 4 8 5 -3 9 13 8 35
-1 63 16 117 38 115 10 -1 18 -7 18 -15z m5858 -1104 c20 -87 40 -158 43 -158
14 0 15 36 2 48 -19 18 -17 38 3 21 14 -11 15 -10 12 7 -1 10 -12 27 -23 36
-12 10 -15 17 -7 18 6 0 12 -5 12 -12 0 -6 3 -8 7 -4 8 7 14 57 15 108 0 16 5
25 10 22 7 -4 9 7 6 29 -3 29 -1 34 10 25 7 -6 12 -21 10 -32 -1 -12 2 -23 7
-26 6 -3 11 10 13 28 3 33 -4 54 -54 153 -18 36 -20 46 -8 46 8 0 14 -7 14
-14 0 -8 17 -49 39 -92 24 -48 36 -83 31 -92 -4 -8 -3 -25 3 -39 6 -14 11 -36
12 -50 1 -14 5 -51 9 -82 6 -50 11 -59 32 -64 16 -4 22 -10 16 -18 -5 -6 -12
-36 -16 -66 -4 -30 -18 -82 -32 -116 -25 -64 -43 -171 -44 -265 0 -51 59 -435
95 -619 60 -308 178 -1183 148 -1100 -21 58 -37 79 -63 85 -26 6 -29 10 -23
36 3 19 1 29 -6 29 -7 0 -9 -5 -5 -11 4 -7 1 -10 -6 -7 -15 5 -18 18 -21 92
-3 59 -8 78 -19 71 -5 -3 -7 3 -6 12 3 21 -15 43 -29 35 -5 -3 -4 1 3 10 8 10
9 19 3 22 -5 4 -8 15 -6 26 2 11 -1 22 -6 25 -5 4 -6 12 -2 18 5 9 3 9 -8 0
-13 -10 -15 -7 -16 23 -1 44 -11 54 -27 31 -14 -18 -32 -24 -21 -7 4 6 1 18
-6 26 -10 12 -10 15 1 12 8 -2 15 6 17 17 3 16 2 17 -6 5 -8 -11 -11 -12 -11
-2 0 7 -4 10 -10 7 -5 -3 -10 -2 -10 4 0 5 6 12 13 15 6 3 -1 4 -18 1 -23 -4
-26 -3 -15 5 13 9 13 11 0 20 -12 8 -12 10 -1 10 10 0 12 8 8 30 -4 16 -2 32
3 35 6 3 10 14 10 23 -1 15 -2 15 -15 -2 -13 -18 -14 -18 -12 3 1 11 8 21 17
21 13 0 13 1 0 10 -17 11 -22 72 -6 82 8 5 7 11 -3 20 -12 11 -12 10 -6 -2 8
-13 7 -13 -10 0 -16 13 -16 15 -2 18 10 2 17 7 18 10 0 4 2 15 4 25 2 9 -1 15
-6 11 -5 -3 -7 -10 -4 -15 4 -5 1 -9 -4 -9 -14 0 -14 6 4 40 9 18 11 31 5 35
-6 4 -4 15 6 30 15 23 14 23 -8 18 l-23 -5 22 16 c21 16 27 65 10 82 -4 4 -1
14 6 22 9 13 9 14 0 8 -7 -4 -13 -3 -13 3 0 5 -3 17 -6 25 -5 12 -2 15 10 10
12 -5 15 -2 10 10 -3 9 -1 29 5 46 6 18 6 28 1 25 -6 -4 -10 -1 -10 4 0 6 5
11 11 11 7 0 8 7 4 18 -4 9 -8 22 -8 28 0 7 -7 11 -16 9 -9 -1 -19 3 -23 9
-14 20 -8 27 14 15 19 -10 20 -9 14 7 -9 22 -14 43 -15 63 -1 9 -9 11 -26 7
-25 -6 -36 9 -13 16 9 3 8 12 -5 31 -11 17 -13 27 -6 27 8 0 8 4 -1 15 -6 8
-8 20 -4 27 6 9 3 9 -9 -1 -15 -12 -17 -12 -11 3 3 9 -1 27 -10 41 -9 14 -12
25 -6 25 7 0 7 6 0 20 -6 12 -8 29 -5 39 4 13 -2 25 -20 39 -14 11 -25 30 -25
42 0 12 -5 31 -11 42 -7 14 -8 18 0 14 7 -4 8 4 4 26 -6 39 -11 85 -16 153 -1
28 -6 56 -10 63 -5 8 -3 10 6 6 7 -2 14 1 14 8 0 7 4 21 8 31 4 10 3 17 -4 17
-6 0 -11 10 -10 23 0 21 1 21 8 2 6 -15 10 -9 16 30 4 28 9 58 10 68 1 10 11
27 22 38 22 22 23 13 -23 274 -51 286 -35 241 74 -217z"/>
<path d="M6914 8366 c-3 -9 -12 -16 -19 -16 -21 0 -11 -47 15 -75 13 -14 27
-25 32 -25 4 0 18 -10 31 -22 l22 -23 3 23 c5 32 28 27 29 -5 0 -36 14 -92 22
-98 14 -8 12 83 -2 96 -7 8 -12 20 -9 27 2 7 -3 24 -12 37 -9 13 -16 31 -16
40 0 9 -4 13 -10 10 -5 -3 -18 -1 -29 4 -14 8 -21 8 -24 -2 -4 -9 -6 -9 -6 1
-1 8 -6 10 -13 6 -10 -6 -10 -4 0 8 9 11 10 18 2 23 -5 3 -13 -1 -16 -9z"/>
</g>
</svg>
